<svg
    fill="none"
    height="16"
    viewBox="0 0 24 25"
    width="16"
    xmlns="http://www.w3.org/2000/svg"
>
    <g clip-path="url(#clip0_947_6633)">
        <path
            d="M19 14.625C19 13.6967 18.6312 12.8065 17.9749 12.1501C17.3185 11.4937 16.4283 11.125 15.5 11.125H8.5C7.57174 11.125 6.6815 11.4937 6.02513 12.1501C5.36875 12.8065 5 13.6967 5 14.625"
            stroke-linecap="round"
            stroke-linejoin="round"
            stroke-width="2"
            stroke="currentColor"
        ></path>
        <path
            d="M12 8.5C13.933 8.5 15.5 6.933 15.5 5C15.5 3.067 13.933 1.5 12 1.5C10.067 1.5 8.5 3.067 8.5 5C8.5 6.933 10.067 8.5 12 8.5Z"
            stroke-linecap="round"
            stroke-linejoin="round"
            stroke-width="2"
            stroke="currentColor"
        ></path>
        <path
            d="M11.5 18.9375H12.5"
            stroke-linecap="round"
            stroke-linejoin="round"
            stroke-width="2"
            stroke="currentColor"
        ></path>
        <path
            d="M4.56116 22.7812L2.90039 15.0938H21.0996L19.3696 22.7812"
            stroke-linecap="round"
            stroke-linejoin="round"
            stroke-width="2"
            stroke="currentColor"
        ></path>
        <line
            stroke-linecap="round"
            stroke-linejoin="round"
            stroke-width="2"
            stroke="currentColor"
            x1="1"
            x2="23"
            y1="23.5"
            y2="23.5"
        ></line>
    </g>
    <defs>
        <clipPath id="clip0_947_6633">
            <rect
                fill="white"
                height="24"
                transform="translate(0 0.5)"
                width="24"
            ></rect>
        </clipPath>
    </defs>
</svg>